<svg width="52" height="52" viewBox="0 0 52 52" fill="none" xmlns="http://www.w3.org/2000/svg">
<g clip-path="url(#clip0_3_508)">
<path d="M52.0021 26.1603C52.0021 11.7108 40.3606 -0.00219727 26.0021 -0.00219727C11.6371 0.00105274 -0.00439453 11.7108 -0.00439453 26.1636C-0.00439453 39.2188 9.50511 50.0413 21.9331 52.0043V33.7231H15.3356V26.1636H21.9396V20.3948C21.9396 13.8396 25.8234 10.2191 31.7611 10.2191C34.6081 10.2191 37.5819 10.7293 37.5819 10.7293V17.1643H34.3026C31.0754 17.1643 30.0679 19.1826 30.0679 21.2528V26.1603H37.2764L36.1259 33.7198H30.0646V52.0011C42.4926 50.0381 52.0021 39.2156 52.0021 26.1603Z" fill="#00A3E0"/>
</g>
<defs>
<clipPath id="clip0_3_508">
<rect width="52" height="52" fill="white"/>
</clipPath>
</defs>
</svg>
