<svg width="52" height="52" viewBox="0 0 52 52" fill="none" xmlns="http://www.w3.org/2000/svg">
<g clip-path="url(#clip0_3_510)">
<path d="M25.9925 17.3296C21.2183 17.3296 17.3222 21.2258 17.3222 26C17.3222 30.7742 21.2183 34.6704 25.9925 34.6704C30.7667 34.6704 34.6629 30.7742 34.6629 26C34.6629 21.2258 30.7667 17.3296 25.9925 17.3296ZM51.9971 26C51.9971 22.4096 52.0296 18.8517 51.828 15.2677C51.6263 11.1049 50.6767 7.41044 47.6326 4.36638C44.5821 1.31582 40.8941 0.372685 36.7313 0.171049C33.1409 -0.0305874 29.5829 0.00193469 25.999 0.00193469C22.4086 0.00193469 18.8507 -0.0305874 15.2668 0.171049C11.104 0.372685 7.40946 1.32233 4.36541 4.36638C1.31485 7.41694 0.371709 11.1049 0.170072 15.2677C-0.0315639 18.8582 0.000958132 22.4161 0.000958132 26C0.000958132 29.5839 -0.0315639 33.1483 0.170072 36.7323C0.371709 40.8951 1.32135 44.5896 4.36541 47.6336C7.41597 50.6842 11.104 51.6273 15.2668 51.8289C18.8572 52.0306 22.4151 51.9981 25.999 51.9981C29.5895 51.9981 33.1474 52.0306 36.7313 51.8289C40.8941 51.6273 44.5886 50.6777 47.6326 47.6336C50.6832 44.5831 51.6263 40.8951 51.828 36.7323C52.0361 33.1483 51.9971 29.5904 51.9971 26ZM25.9925 39.3405C18.61 39.3405 12.652 33.3825 12.652 26C12.652 18.6175 18.61 12.6595 25.9925 12.6595C33.375 12.6595 39.333 18.6175 39.333 26C39.333 33.3825 33.375 39.3405 25.9925 39.3405ZM39.8794 15.2287C38.1557 15.2287 36.7638 13.8368 36.7638 12.1131C36.7638 10.3895 38.1557 8.99751 39.8794 8.99751C41.6031 8.99751 42.995 10.3895 42.995 12.1131C42.9955 12.5224 42.9153 12.9278 42.7589 13.306C42.6025 13.6842 42.373 14.0279 42.0836 14.3173C41.7942 14.6067 41.4505 14.8362 41.0723 14.9926C40.6941 15.149 40.2887 15.2292 39.8794 15.2287Z" fill="#00A3E0"/>
</g>
<defs>
<clipPath id="clip0_3_510">
<rect width="52" height="52" fill="white"/>
</clipPath>
</defs>
</svg>
