<svg width="18" height="20" viewBox="0 0 18 20" fill="none" xmlns="http://www.w3.org/2000/svg">
<path d="M9 9.5C8.14752 9.5 7.32995 9.23661 6.72716 8.76777C6.12436 8.29893 5.78571 7.66304 5.78571 7C5.78571 6.33696 6.12436 5.70107 6.72716 5.23223C7.32995 4.76339 8.14752 4.5 9 4.5C9.85248 4.5 10.67 4.76339 11.2728 5.23223C11.8756 5.70107 12.2143 6.33696 12.2143 7C12.2143 7.3283 12.1311 7.65339 11.9696 7.95671C11.8081 8.26002 11.5713 8.53562 11.2728 8.76777C10.9744 8.99991 10.62 9.18406 10.2301 9.3097C9.84008 9.43534 9.42211 9.5 9 9.5ZM9 0C6.61305 0 4.32387 0.737498 2.63604 2.05025C0.948211 3.36301 0 5.14348 0 7C0 12.25 9 20 9 20C9 20 18 12.25 18 7C18 5.14348 17.0518 3.36301 15.364 2.05025C13.6761 0.737498 11.3869 0 9 0Z" fill="#472D1C"/>
</svg>
