<svg width="40" height="28" viewBox="0 0 40 28" fill="none" xmlns="http://www.w3.org/2000/svg">
<path d="M37.8222 28L28.0222 18.2C27.2444 18.8222 26.35 19.3148 25.3389 19.6778C24.3278 20.0407 23.2519 20.2222 22.1111 20.2222C19.2852 20.2222 16.8938 19.2433 14.9369 17.2853C12.98 15.3274 12.001 12.936 12 10.1111C11.999 7.28622 12.9779 4.89481 14.9369 2.93689C16.8959 0.978963 19.2873 0 22.1111 0C24.935 0 27.3269 0.978963 29.2869 2.93689C31.2469 4.89481 32.2253 7.28622 32.2222 10.1111C32.2222 11.2519 32.0407 12.3278 31.6778 13.3389C31.3148 14.35 30.8222 15.2444 30.2 16.0222L40 25.8222L37.8222 28ZM22.1111 17.1111C24.0556 17.1111 25.7086 16.4308 27.0702 15.0702C28.4319 13.7096 29.1122 12.0566 29.1111 10.1111C29.1101 8.16563 28.4298 6.51311 27.0702 5.15356C25.7107 3.794 24.0576 3.11319 22.1111 3.11111C20.1646 3.10904 18.5121 3.78985 17.1536 5.15356C15.795 6.51726 15.1142 8.16978 15.1111 10.1111C15.108 12.0524 15.7888 13.7055 17.1536 15.0702C18.5183 16.435 20.1708 17.1153 22.1111 17.1111Z" fill="#2C1508"/>
</svg>
