<svg width="247" height="48" viewBox="0 0 247 48" fill="none" xmlns="http://www.w3.org/2000/svg">
<g clip-path="url(#clip0_3_428)">
<path d="M71.5941 27.4684C71.5941 26.4851 71.4921 25.7066 71.345 25.1739C71.1694 24.6208 70.9162 24.2152 70.5405 23.9898C70.1648 23.7645 69.638 23.6374 68.9601 23.6374C68.3311 23.6374 67.8288 23.7645 67.4776 23.9898C67.1264 24.2152 66.8732 24.6208 66.6976 25.1739C66.5465 25.7025 66.473 26.4851 66.473 27.4684V32.459C66.473 33.4669 66.5465 34.2208 66.6976 34.778C66.8732 35.3066 67.1264 35.7122 67.4776 35.9376C67.8288 36.1875 68.3311 36.2899 68.9601 36.2899C69.638 36.2899 70.1648 36.1875 70.5405 35.9376C70.9162 35.7122 71.1694 35.3066 71.345 34.778C71.4961 34.2249 71.5941 33.4669 71.5941 32.459V27.4684ZM82.494 22.0764C83.4496 23.2359 83.9519 24.9486 83.9519 27.1898V31.7501C83.9519 34.5978 83.4741 37.1176 82.5716 39.3097H78.7777C79.6067 36.9414 80.0314 34.4216 80.0314 31.7501V27.2144C80.0314 25.9033 79.8558 24.9732 79.5046 24.4446C79.1779 23.9161 78.6021 23.6374 77.7975 23.6374C76.993 23.6374 76.3641 23.9161 76.0129 24.4692C75.6862 24.9978 75.5106 25.9319 75.5106 27.2144V32.4794C75.5106 34.8477 74.9592 36.6382 73.8525 37.8223C72.7458 39.0065 71.1163 39.6129 68.956 39.6129C66.7956 39.6129 65.2397 39.0065 64.1329 37.7978C63.0548 36.6136 62.4994 34.8231 62.4994 32.4835V27.4439C62.4994 25.1248 63.0262 23.3629 64.0798 22.1542C65.1335 20.9455 66.6649 20.3391 68.6987 20.3391C69.9279 20.3391 70.9571 20.5645 71.7616 21.0438C72.5661 21.4987 73.1419 22.2034 73.4686 23.0843C73.9465 22.1501 74.5468 21.4454 75.3268 20.9947C76.1068 20.5645 77.0584 20.3391 78.2386 20.3391C80.0967 20.3391 81.5016 20.9168 82.4817 22.0764H82.494Z" fill="#00A3E0"/>
<path d="M98.8662 22.1255C99.9729 23.3342 100.524 25.1001 100.524 27.4397V31.7501C100.524 34.5977 100.071 37.1175 99.1439 39.3096H95.301C96.13 36.9414 96.5547 34.4215 96.5547 31.7501V27.4684C96.5547 26.485 96.4812 25.7065 96.3056 25.1739C96.1545 24.6207 95.9054 24.2151 95.5542 23.9898C95.203 23.7644 94.7006 23.6374 94.0717 23.6374C93.4428 23.6374 92.916 23.7644 92.5648 23.9898C92.2136 24.2151 91.9604 24.6207 91.8134 25.1739C91.6377 25.7024 91.5642 26.485 91.5642 27.4684V31.7255C91.5642 34.3723 91.993 36.8922 92.818 39.3096H88.9751C88.0725 37.0684 87.5947 34.5485 87.5947 31.7747V27.4397C87.5947 25.096 88.146 23.3342 89.2283 22.1255C90.335 20.9414 91.94 20.335 94.0758 20.335C96.2117 20.335 97.7921 20.9414 98.8703 22.1255H98.8662Z" fill="#00A3E0"/>
<path d="M112.102 35.6796C112.502 35.2248 112.731 34.4709 112.731 33.4629C112.731 32.455 112.506 31.6724 112.102 31.2217C111.702 30.7423 111.048 30.517 110.142 30.517C109.288 30.517 108.659 30.7423 108.259 31.2217C107.859 31.6765 107.655 32.4304 107.655 33.4629C107.655 34.4955 107.855 35.2248 108.259 35.6796C108.688 36.159 109.313 36.3843 110.166 36.3843C111.02 36.3843 111.698 36.159 112.098 35.6796H112.102ZM116.696 33.4875C116.696 37.5684 114.511 39.6089 110.166 39.6089C105.821 39.6089 103.689 37.5684 103.689 33.4875C103.689 29.9106 105.323 27.8701 108.61 27.4153V26.3828C108.61 25.9812 108.508 25.6289 108.284 25.3748C108.083 25.0962 107.708 24.7439 107.152 24.2932C106.826 23.99 106.577 23.7646 106.401 23.5638C106.225 23.3631 106.099 23.109 105.972 22.7812C105.87 22.478 105.821 22.0519 105.821 21.4947V20.6138H109.84V21.044C109.84 21.3964 109.913 21.6996 110.117 21.9249C110.293 22.1748 110.595 22.478 111.048 22.8304C111.6 23.2606 111.979 23.6622 112.229 24.0883C112.478 24.5144 112.58 25.0716 112.58 25.7764V27.5669C115.316 28.2471 116.696 30.2138 116.696 33.4875Z" fill="#00A3E0"/>
<path d="M131.259 22.1255C132.366 23.3342 132.893 25.1001 132.893 27.4397V31.7501C132.893 34.5977 132.44 37.1175 131.537 39.3096H127.694C128.523 36.9414 128.923 34.4215 128.923 31.7501V27.4684C128.923 26.485 128.85 25.7065 128.699 25.1739C128.548 24.6207 128.299 24.2151 127.947 23.9898C127.572 23.7644 127.094 23.6374 126.44 23.6374C125.787 23.6374 125.309 23.7644 124.958 23.9898C124.607 24.2151 124.329 24.6207 124.178 25.1739C124.027 25.7024 123.953 26.485 123.953 27.4684V31.7255C123.953 34.3723 124.354 36.8922 125.207 39.3096H121.364C120.433 37.0684 119.984 34.5485 119.984 31.7747V27.4397C119.984 25.096 120.535 23.3342 121.617 22.1255C122.696 20.9414 124.305 20.335 126.44 20.335C128.576 20.335 130.157 20.9414 131.264 22.1255H131.259Z" fill="#00A3E0"/>
<path d="M136.56 20.6138H140.53V33.4384C140.53 34.4709 140.754 35.2289 141.183 35.6796C141.612 36.159 142.314 36.3843 143.294 36.3843C144.275 36.3843 144.953 36.159 145.406 35.7042C145.835 35.2494 146.035 34.4955 146.035 33.4629C146.035 33.0081 145.986 32.6312 145.859 32.2542C145.708 31.9019 145.532 31.4471 145.255 30.9185C144.953 30.3121 144.728 29.759 144.577 29.3042C144.426 28.8494 144.352 28.2962 144.352 27.6898V27.3129H148.322C148.346 27.8168 148.424 28.2716 148.546 28.6732C148.673 29.0501 148.873 29.5541 149.151 30.1605C149.453 30.8652 149.678 31.4471 149.804 31.8732C149.955 32.328 150.004 32.8565 150.004 33.4875C150.004 37.5684 147.77 39.6089 143.299 39.6089C138.827 39.6089 136.568 37.5439 136.568 33.4629V20.6138H136.56Z" fill="#00A3E0"/>
<path d="M164.408 22.1255C165.515 23.3342 166.066 25.1001 166.066 27.4397V31.7501C166.066 34.5977 165.613 37.1175 164.686 39.3096H160.843C161.696 36.9414 162.097 34.4215 162.097 31.7501V27.4684C162.097 26.485 162.023 25.7065 161.872 25.1739C161.721 24.6207 161.443 24.2151 161.092 23.9898C160.741 23.7644 160.238 23.6374 159.609 23.6374C158.981 23.6374 158.478 23.7644 158.103 23.9898C157.751 24.2151 157.498 24.6207 157.351 25.1739C157.2 25.7024 157.126 26.485 157.126 27.4684V31.7255C157.126 34.3723 157.527 36.8922 158.356 39.3096H154.513C153.61 37.0684 153.157 34.5485 153.157 31.7747V27.4397C153.157 25.096 153.684 23.3342 154.791 22.1255C155.869 20.9414 157.478 20.335 159.614 20.335C161.749 20.335 163.33 20.9414 164.408 22.1255Z" fill="#00A3E0"/>
<path d="M183.896 36.9662C184.501 36.286 184.799 35.1757 184.799 33.59C184.799 32.0043 184.497 30.8202 183.896 30.1401C183.292 29.4845 182.316 29.1321 180.984 29.1321C179.653 29.1321 178.726 29.4845 178.122 30.1401C177.517 30.8202 177.219 31.9798 177.219 33.59C177.219 35.2002 177.546 36.286 178.15 36.9662C178.755 37.6463 179.706 37.9741 181.013 37.9741C182.32 37.9741 183.3 37.6463 183.9 36.9662H183.896ZM185.681 29.5337C186.461 30.5908 186.861 31.9511 186.861 33.6146C186.861 35.5526 186.359 37.0645 185.33 38.1503C184.325 39.2074 182.896 39.7646 181.009 39.7646C179.931 39.7646 178.951 39.5147 178.044 39.0107C177.166 38.5314 176.464 37.802 175.933 36.8924C175.43 35.9582 175.181 34.852 175.181 33.6187C175.181 32.3854 175.406 31.3529 175.859 30.4433C176.313 29.5337 176.937 28.8289 177.742 28.3004C178.546 27.7718 179.449 27.4686 180.454 27.3949V25.7805C180.454 25.252 180.327 24.8217 180.102 24.5226C179.878 24.1949 179.527 23.8917 179.073 23.6417C178.595 23.3631 178.244 23.0353 178.02 22.6338C177.795 22.2323 177.668 21.802 177.668 21.3226V20.4663H179.727V21.0194C179.727 21.3718 179.8 21.675 179.976 21.9004C180.151 22.1503 180.454 22.3798 180.878 22.6543C181.405 22.9821 181.834 23.359 182.083 23.8138C182.361 24.244 182.483 24.8463 182.483 25.5511V27.5178C183.839 27.7964 184.893 28.4766 185.673 29.5337H185.681Z" fill="#00A3E0"/>
<path d="M196.577 20.4621V21.216C196.577 21.9699 196.65 22.6008 196.777 23.0802C196.879 23.5842 197.079 24.039 197.353 24.4897C197.63 24.9199 198.079 25.5222 198.684 26.2802C199.386 27.1857 199.913 27.9192 200.293 28.4723C200.644 29.0254 200.922 29.7302 201.146 30.5619C201.371 31.3937 201.498 32.4262 201.498 33.6841C201.498 34.9419 201.249 36.0277 200.746 36.9578C200.268 37.8633 199.566 38.5435 198.712 39.0229C197.834 39.5023 196.83 39.7522 195.699 39.7522C193.967 39.7522 192.558 39.2236 191.504 38.1665C190.475 37.1094 189.948 35.6467 189.948 33.7824C189.948 32.0451 190.377 30.5578 191.231 29.2959L192.889 29.9023C192.611 30.4308 192.411 30.9839 192.235 31.5658C192.084 32.1722 191.986 32.9015 191.986 33.7578C191.986 35.2943 192.289 36.3801 192.864 37.007C193.44 37.6626 194.396 37.9658 195.703 37.9658C197.009 37.9658 197.99 37.638 198.565 36.9824C199.141 36.3268 199.443 35.1919 199.443 33.5816C199.443 32.5491 199.37 31.7174 199.194 31.0618C199.043 30.3816 198.794 29.8285 198.516 29.3491C198.214 28.8697 197.736 28.2142 197.112 27.4111C196.434 26.5548 195.931 25.85 195.605 25.2928C195.253 24.7151 195 24.1332 194.853 23.5023C194.678 22.8713 194.604 22.142 194.604 21.261V20.4539H196.589L196.577 20.4621Z" fill="#00A3E0"/>
<path d="M213.831 36.9661C214.46 36.286 214.762 35.1756 214.762 33.5899C214.762 32.0043 214.435 30.8939 213.757 30.2138C213.079 29.5336 212.148 29.2058 210.87 29.2058C210.143 29.2058 209.49 29.3328 208.861 29.5582C208.207 29.7835 207.656 30.1359 207.178 30.5661V33.5899C207.178 35.1756 207.481 36.286 208.081 36.9661C208.681 37.6463 209.637 37.9741 210.968 37.9741C212.299 37.9741 213.227 37.6463 213.831 36.9661ZM214.031 28.0995C214.885 28.5789 215.538 29.2591 216.04 30.1892C216.543 31.1479 216.792 32.2788 216.792 33.6145C216.792 35.6304 216.265 37.1423 215.236 38.1994C214.182 39.2319 212.749 39.7605 210.968 39.7605C209.188 39.7605 207.803 39.2319 206.75 38.224C205.696 37.1915 205.169 35.7287 205.169 33.8153V25.3011C205.169 23.8383 205.647 22.6542 206.602 21.7733C207.534 20.8924 208.787 20.4622 210.343 20.4622H215.616V22.3019H210.592C209.363 22.3019 208.481 22.5518 207.954 23.0312C207.427 23.5351 207.174 24.3423 207.174 25.4486V29.0255C207.652 28.497 208.252 28.0914 208.959 27.8168C209.665 27.5423 210.441 27.3866 211.246 27.3866C212.275 27.4112 213.206 27.6365 214.035 28.0914L214.031 28.0995Z" fill="#00A3E0"/>
<path d="M220.659 31.7011L222.493 32.1313C222.166 32.9385 222.015 33.7456 222.015 34.5487C222.015 36.8432 223.244 37.9741 225.731 37.9741C227.112 37.9741 228.067 37.6709 228.619 37.0399C229.194 36.4089 229.472 35.3026 229.472 33.7661C229.472 32.2296 229.17 31.1193 228.57 30.3899C227.994 29.6606 227.014 29.2796 225.682 29.2796H224.576V27.5177H226.009C227.14 27.5177 227.916 27.2145 228.369 26.6368C228.798 26.0304 229.023 25.2519 229.023 24.2686C229.023 23.6376 228.921 23.0353 228.721 22.4535C228.496 21.8757 228.194 21.2202 227.741 20.4622H229.701C230.579 21.72 231.032 23.0558 231.032 24.4161C231.032 25.424 230.73 26.3049 230.179 27.0629C229.627 27.8209 228.721 28.2716 227.491 28.4478C228.925 28.5994 229.925 29.1771 230.579 30.1851C231.208 31.2176 231.51 32.4509 231.51 33.8645C231.51 35.7779 231.008 37.2406 229.979 38.2486C228.974 39.2565 227.545 39.7605 225.735 39.7605C224.629 39.7605 223.624 39.5351 222.746 39.1049C221.892 38.7034 221.19 38.097 220.712 37.3144C220.21 36.5318 219.961 35.6017 219.961 34.5692C219.961 33.4588 220.21 32.5042 220.663 31.697L220.659 31.7011Z" fill="#00A3E0"/>
<path d="M245.093 21.8757C246.073 22.986 246.575 24.6454 246.575 26.8908V30.2915C246.575 32.2296 246.4 33.9955 246.098 35.5566C245.795 37.1177 245.371 38.4288 244.766 39.4613H242.781C243.986 37.3963 244.591 34.3233 244.591 30.267V27.0178C244.591 25.7312 244.464 24.7233 244.239 24.0186C244.015 23.2892 243.635 22.7853 243.108 22.4821C242.581 22.1789 241.826 22.0273 240.899 22.0273C239.972 22.0273 239.241 22.1789 238.714 22.4821C238.187 22.7853 237.811 23.2892 237.558 24.0186C237.334 24.7233 237.207 25.7312 237.207 27.0178V30.267C237.207 32.1558 237.407 33.9218 237.758 35.5566C238.109 37.1709 238.538 38.478 239.041 39.4613H236.982C236.505 38.5026 236.08 37.1955 235.729 35.532C235.377 33.8439 235.202 32.1067 235.202 30.2915V26.8662C235.202 24.625 235.704 22.9615 236.684 21.8511C237.664 20.7694 239.069 20.2122 240.903 20.2122C242.737 20.2122 244.117 20.7653 245.097 21.8757H245.093Z" fill="#00A3E0"/>
<path d="M23.7557 26.5877C23.9804 28.8535 24.107 30.013 22.2733 31.9552C20.3661 33.971 15.5921 37.675 10.7201 40.4981C8.66179 41.7068 5.87252 43.1449 3.76524 43.8988C2.20929 44.4765 0.902459 44.706 0.249041 43.571C-0.179765 42.8417 0.0244285 42.1616 0.249041 41.5797C1.95609 36.9703 6.82814 28.329 10.0176 22.7321C10.3443 22.1544 10.6956 21.5726 11.0223 20.9703C15.9474 12.4765 22.4489 2.07347 23.7312 0.409959C23.9068 0.160023 24.2581 -0.118594 24.5603 0.0575905C24.8094 0.209191 24.8094 0.512392 24.7849 0.737744C24.7849 0.762328 24.7114 1.06553 24.6583 1.19255C22.5755 9.78461 22.8001 18.2005 23.7557 26.5877Z" fill="#00A3E0"/>
<path d="M30.9393 29.2304C28.881 28.2716 27.7988 27.7923 27.0474 25.2232C26.2674 22.5764 25.4384 16.582 25.4384 10.9113C25.4384 8.54309 25.5895 5.41684 25.9652 3.20019C26.2674 1.53668 26.7166 0.278809 28.0234 0.278809C28.877 0.278809 29.3548 0.807362 29.755 1.28675C32.8955 5.06447 37.8655 13.6319 41.1326 19.2248C41.4593 19.7779 41.786 20.3597 42.1373 20.962C47.0093 29.4762 52.7349 40.3382 53.5394 42.2762C53.666 42.5549 53.7395 42.981 53.4128 43.1818C53.1637 43.3088 52.9105 43.1572 52.7349 43.0302L52.4082 42.7024C46.0292 36.581 38.6701 32.5738 30.9352 29.2222L30.9393 29.2304Z" fill="#00A3E0"/>
<path d="M25.0627 34.1185C26.9208 32.8073 27.8764 32.1272 30.4615 32.7336C33.1242 33.3892 38.7232 35.6796 43.6197 38.5026C45.6535 39.6867 48.2917 41.3994 50.0232 42.8376C51.277 43.9193 52.1591 44.9272 51.5057 46.0621C51.0769 46.7915 50.3989 46.9677 49.7741 47.0701C44.9266 47.9018 35.0314 47.951 28.6034 48.0043H26.5941C16.801 47.9797 4.56986 47.5249 2.48709 47.2504C2.18489 47.2258 1.78467 47.0742 1.78467 46.6972C1.78467 46.4186 2.03378 46.2424 2.23798 46.1687C2.28698 46.1687 2.58919 46.0662 2.69129 46.0417C11.153 43.571 18.3121 39.1869 25.0668 34.1226L25.0627 34.1185Z" fill="#00A3E0"/>
</g>
<defs>
<clipPath id="clip0_3_428">
<rect width="246.575" height="48" fill="white"/>
</clipPath>
</defs>
</svg>
