<svg width="40" height="28" viewBox="0 0 40 28" fill="none" xmlns="http://www.w3.org/2000/svg">
<path d="M26 0C27.8565 0 29.637 0.737498 30.9497 2.05025C32.2625 3.36301 33 5.14348 33 7C33 8.85652 32.2625 10.637 30.9497 11.9497C29.637 13.2625 27.8565 14 26 14C24.1435 14 22.363 13.2625 21.0503 11.9497C19.7375 10.637 19 8.85652 19 7C19 5.14348 19.7375 3.36301 21.0503 2.05025C22.363 0.737498 24.1435 0 26 0ZM26 17.5C33.735 17.5 40 20.6325 40 24.5V28H12V24.5C12 20.6325 18.265 17.5 26 17.5Z" fill="#2C1508"/>
</svg>
